# xmcd
#
# Track frame offsets: 
#        182
#        38892
#        70937
#        100440
#        123807
#        143802
#        170895
#        194277
#        214035
#        238907
#
# Disc length: 3571 seconds
#
# Revision: 1
# Processed by: cddbd v1.5.2PL0 Copyright (c) Steve Scherf et al.
# Submitted via: ExactAudioCopyFreeDBPlugin 1.0
#
DISCID=960df10a
DTITLE=Little Feat - Extended Versions
DYEAR=2000
DGENRE=Rock
TTITLE0=Let It Roll
TTITLE1=Feets Don't Fail Me Now
TTITLE2=Fat Man in the Bathtub
TTITLE3=Sailin' Shoes
TTITLE4=Hate to Lose Your Lovin'
TTITLE5=All That You Dream
TTITLE6=Oh, Atlanta
TTITLE7=Hoy Hoy (Or Blues Don't It Tell All)
TTITLE8=Home Ground
TTITLE9=Eden's Wall
EXTD=
EXTT0=
EXTT1=
EXTT2=
EXTT3=
EXTT4=
EXTT5=
EXTT6=
EXTT7=
EXTT8=
EXTT9=
PLAYORDER=
